# xmcd
# 
# Track frame offsets:
#     150
#     17893
#     34118
#     52283
#     65819
#     82614
#     99513
#     116797
#     134247
#     152382
#     172129
# 
# Disc length: 2563
# 
# Revision: 1
# Processed by: cddbd v1.5.2PL0 Copyright (c) Steve Scherf et al.
# Submitted via: fre:ac v1.0.17
# 
DISCID=9a0a010b
DTITLE=Texas Hippie Coalition - Peacemaker
DYEAR=2012
DGENRE=Metal
TTITLE0=Hands Up
TTITLE1=Damn You to Hell
TTITLE2=8 Seconds
TTITLE3=Outlaw
TTITLE4=Turn It Up
TTITLE5=Wicked
TTITLE6=Don't Come Lookin'
TTITLE7=Sex and Drugs and Rock and Roll
TTITLE8=Paw Paw Hill
TTITLE9=Peacemaker
TTITLE10=Think of Me
EXTD=
EXTT0=
EXTT1=
EXTT2=
EXTT3=
EXTT4=
EXTT5=
EXTT6=
EXTT7=
EXTT8=
EXTT9=
EXTT10=
PLAYORDER=
